<svg width="120" height="120" viewBox="0 0 120 120" fill="none" xmlns="http://www.w3.org/2000/svg">
<g clip-path="url(#clip0_2203_6)">
<path d="M61.0735 78.3335C71.8304 78.3335 80.5507 69.6132 80.5507 58.8563C80.5507 48.0993 71.8304 39.379 61.0735 39.379C50.3165 39.379 41.5962 48.0993 41.5962 58.8563C41.5962 69.6132 50.3165 78.3335 61.0735 78.3335Z" fill="#A0616A"/>
<path d="M44.9522 82.6948L49.0123 72.3189L69.9898 69.161L72.2436 92.1294L51.0406 92.5805L44.9522 82.6948Z" fill="#A0616A"/>
<path d="M80.7394 62.4499C80.4866 63.4626 79.9756 65.8739 79.1776 65.8858C78.5257 65.8953 77.9017 55.4344 78.5529 53.7041C79.301 51.7162 77.3351 49.2017 75.8542 47.9108C73.1916 45.5899 67.2812 50.5736 61.2713 48.3159C61.1119 48.2562 61.1437 48.2629 59.2458 47.5058C53.4061 45.1757 53.0991 45.1085 52.7645 45.0753C49.9336 44.7952 46.4787 47.1118 45.0679 49.9363C43.6014 52.8723 44.8267 55.3906 43.4476 62.4938C43.2869 63.3218 43.0345 64.5018 42.6374 64.5192C41.9115 64.5509 41.2027 60.6737 41.0171 59.6582C40.2394 55.4037 39.4896 51.3018 41.0171 46.6956C41.1838 46.1932 42.2107 44.3284 44.2578 40.6194C47.2069 35.2761 48.6901 32.5945 49.1188 32.1126C52.1929 28.6556 57.7885 25.5019 62.4865 26.8465C64.861 27.5262 64.4353 28.6188 67.3475 29.6821C72.5373 31.577 77.0478 29.2596 77.8796 30.8974C78.3203 31.7649 77.0874 32.4801 77.0695 34.138C77.0388 36.9827 80.6366 37.8047 82.7406 40.6194C83.8717 42.1325 85.8077 42.1487 80.7394 62.4499Z" fill="#2F2E41"/>
<path d="M104.869 99.8369C104.084 100.719 103.27 101.583 102.426 102.427C91.094 113.759 76.0263 120 60 120C46.1481 120 33.0136 115.338 22.3872 106.755C22.3804 106.751 22.3759 106.746 22.3692 106.739C20.9594 105.602 19.5948 104.393 18.2775 103.117C18.3022 102.918 18.3293 102.722 18.3586 102.528C18.5436 101.22 18.7489 99.9722 18.9789 98.8241C20.8624 89.4136 45.6451 79.534 46.2902 79.2767C46.2992 79.2745 46.3038 79.2723 46.3038 79.2723C46.3038 79.2723 49.4933 91.0287 63.1602 90.8776C72.4692 90.776 70.6647 79.2723 70.6647 79.2723C70.6647 79.2723 70.7774 79.2947 70.9895 79.3399C73.6782 79.9106 92.3459 84.0113 99.7105 89.6077C101.955 91.3129 103.565 94.9446 104.723 99.2752C104.772 99.4602 104.82 99.6497 104.869 99.8369Z" fill="#00248E"/>
<path d="M102.426 17.5737C91.094 6.24156 76.0263 0 60 0C43.9737 0 28.906 6.24156 17.5737 17.5737C6.24139 28.9061 0 43.9737 0 60C0 74.628 5.19926 88.4572 14.7271 99.3768C15.6361 100.421 16.5857 101.438 17.5737 102.427C17.806 102.659 18.0406 102.891 18.2775 103.117C19.5948 104.393 20.9594 105.602 22.3692 106.739C22.3759 106.746 22.3804 106.751 22.3872 106.755C33.0136 115.338 46.1481 120 60 120C76.0263 120 91.094 113.759 102.426 102.427C103.27 101.583 104.084 100.719 104.869 99.8369C114.652 88.8475 120 74.8355 120 60C120 43.9737 113.759 28.9061 102.426 17.5737ZM104.723 99.2752C102.947 101.294 101.039 103.193 99.009 104.955C95.1587 108.305 90.873 111.165 86.2512 113.443C84.6293 114.244 82.9669 114.972 81.2662 115.624C74.6594 118.16 67.4887 119.549 60 119.549C52.7729 119.549 45.8436 118.254 39.4308 115.886C36.7985 114.916 34.2542 113.763 31.8113 112.444C31.4526 112.25 31.0963 112.054 30.7421 111.853C28.879 110.797 27.0767 109.645 25.3466 108.399C22.8677 106.622 20.5308 104.657 18.3586 102.528C17.1406 101.335 15.9767 100.092 14.8647 98.7994C5.88498 88.3693 0.451128 74.8084 0.451128 60C0.451128 27.1648 27.1646 0.451128 60 0.451128C92.8354 0.451128 119.549 27.1648 119.549 60C119.549 75.0361 113.948 88.7865 104.723 99.2752Z" fill="white"/>
</g>
<defs>
<clipPath id="clip0_2203_6">
<rect width="120" height="120" fill="white"/>
</clipPath>
</defs>
</svg>
